<svg class="main-svg" xmlns="http://www.w3.org/2000/svg" xmlns:xlink="http://www.w3.org/1999/xlink" width="1200" height="800" style="" viewBox="0 0 1200 800"><rect x="0" y="0" width="1200" height="800" style="fill: rgb(255, 255, 255); fill-opacity: 1;"/><defs id="defs-9bcdba"><g class="clips"><clipPath id="clip9bcdbaxyplot" class="plotclip"><rect width="1021" height="612"/></clipPath><clipPath class="axesclip" id="clip9bcdbax"><rect x="99" y="0" width="1021" height="800"/></clipPath><clipPath class="axesclip" id="clip9bcdbay"><rect x="0" y="100" width="1200" height="612"/></clipPath><clipPath class="axesclip" id="clip9bcdbaxy"><rect x="99" y="100" width="1021" height="612"/></clipPath></g><g class="gradients"/><g class="patterns"/></defs><g class="bglayer"/><g class="layer-below"><g class="imagelayer"/><g class="shapelayer"/></g><g class="cartesianlayer"><g class="subplot xy"><g class="layer-subplot"><g class="shapelayer"/><g class="imagelayer"/></g><g class="minor-gridlayer"><g class="x"/><g class="y"/></g><g class="gridlayer"><g class="x"><path class="xgrid crisp" transform="translate(303.2,0)" d="M0,100v612" style="stroke: rgb(255, 255, 255); stroke-opacity: 1; stroke-width: 1px;"/><path class="xgrid crisp" transform="translate(507.4,0)" d="M0,100v612" style="stroke: rgb(255, 255, 255); stroke-opacity: 1; stroke-width: 1px;"/><path class="xgrid crisp" transform="translate(711.6,0)" d="M0,100v612" style="stroke: rgb(255, 255, 255); stroke-opacity: 1; stroke-width: 1px;"/><path class="xgrid crisp" transform="translate(915.8,0)" d="M0,100v612" style="stroke: rgb(255, 255, 255); stroke-opacity: 1; stroke-width: 1px;"/></g><g class="y"><path class="ygrid crisp" transform="translate(0,589.6)" d="M99,0h1021" style="stroke: rgb(211, 211, 211); stroke-opacity: 1; stroke-width: 1px;"/><path class="ygrid crisp" transform="translate(0,467.2)" d="M99,0h1021" style="stroke: rgb(211, 211, 211); stroke-opacity: 1; stroke-width: 1px;"/><path class="ygrid crisp" transform="translate(0,344.8)" d="M99,0h1021" style="stroke: rgb(211, 211, 211); stroke-opacity: 1; stroke-width: 1px;"/><path class="ygrid crisp" transform="translate(0,222.4)" d="M99,0h1021" style="stroke: rgb(211, 211, 211); stroke-opacity: 1; stroke-width: 1px;"/></g></g><g class="zerolinelayer"/><g class="layer-between"><g class="shapelayer"/><g class="imagelayer"/></g><path class="xlines-below"/><path class="ylines-below"/><g class="overlines-below"/><g class="xaxislayer-below"/><g class="yaxislayer-below"/><g class="overaxes-below"/><g class="overplot"><g class="xy" transform="translate(99,100)" clip-path="url(#clip9bcdbaxyplot)"><g class="scatterlayer mlayer"><g class="trace scatter trace5837ef" style="stroke-miterlimit: 2; opacity: 1;"><g class="fills"/><g class="errorbars"/><g class="lines"><path class="js-line" d="M0,2.32L8.17,2.95L9.19,3.09L17.36,4.21L18.38,4.7L25.53,6.32L26.55,6.74L42.88,12.08L43.9,12.22L67.39,20.15L68.41,20.92L73.51,23.03L74.53,23.66L84.74,27.1L85.76,27.38L102.1,33.35L103.12,33.56L108.23,36.02L109.25,36.3L122.52,41.91L123.54,42.26L134.77,46.62L135.79,47.25L153.15,54.97L154.17,55.11L157.23,56.1L158.26,56.38L164.38,58.34L165.4,58.97L168.47,60.73L169.49,60.94L172.55,61.5L173.57,62.34L183.78,66.56L184.8,66.98L189.91,69.01L190.93,69.51L193.99,70.77L195.01,71.19L202.16,74.21L203.18,74.91L227.68,85.02L228.7,85.86L243,92.53L244.02,93.1L248.1,95.2L249.12,95.83L256.27,98.43L257.29,98.71L271.59,105.38L272.61,105.8L277.71,108.33L278.73,108.89L286.9,111.84L287.92,112.4L299.15,117.11L300.17,117.39L311.4,121.88L312.43,122.44L323.66,126.87L324.68,127.29L331.83,130.52L332.85,130.73L336.93,132.97L337.95,133.18L339.99,134.59L341.01,134.87L347.14,137.19L348.16,137.75L355.31,140.42L356.33,140.84L359.39,141.75L360.41,142.59L370.62,146.66L371.64,147.51L379.81,150.74L380.83,151.02L385.94,152.7L386.96,153.12L394.11,155.3L395.13,155.65L404.32,158.81L405.34,159.58L408.4,161.13L409.42,161.69L418.61,165.41L419.63,166.18L426.78,170.25L427.8,170.6L433.93,173.48L434.95,174.11L442.09,176.64L443.11,177.13L462.51,186.47L463.53,187.74L470.68,191.46L471.7,192.37L497.23,206.2L498.25,206.55L510.5,213.71L511.52,214.13L525.82,222.77L526.84,223.4L529.9,224.8L530.92,225.3L535,227.68L536.03,228.46L539.09,230.49L540.11,230.84L543.17,232.25L544.19,232.88L567.68,244.95L568.7,245.52L575.84,248.32L576.87,249.17L582.99,252.19L584.01,252.47L593.2,257.94L594.22,258.36L598.31,260.68L599.33,261.52L606.47,265.1L607.5,265.95L614.64,270.72L615.66,271.07L627.92,279.85L628.94,280.13L632,281.81L633.02,282.23L637.1,285.11L638.13,285.6L648.34,290.87L649.36,292.2L652.42,294.03L653.44,294.52L666.71,302.31L667.73,303.23L670.8,305.47L671.82,306.18L684.07,315.3L685.09,316.22L699.39,325.41L700.41,326.54L708.57,332.29L709.6,332.71L716.74,337.77L717.76,338.33L722.87,342.26L723.89,343.1L727.97,345.7L728.99,346.33L739.2,352.09L740.23,352.44L742.27,353.64L743.29,354.55L746.35,356.87L747.37,357.43L766.77,368.1L767.79,369.01L769.83,370.63L770.86,371.82L779.02,377.65L780.04,378.42L783.11,380.53L784.13,381.58L806.59,398.57L807.61,399.62L808.63,399.97L809.65,401.24L816.8,407.13L817.82,407.7L822.93,411.91L823.95,412.47L830.07,417.24L831.09,417.81L851.51,431.85L852.54,432.83L855.6,434.8L856.62,435.15L867.85,444.48L868.87,445.61L873.98,449.26L875,449.96L889.29,463.44L890.31,463.93L899.5,471.73L900.52,472.5L918.9,489.14L919.92,490.4L926.05,495.67L927.07,496.09L929.11,497.84L930.13,499.25L953.61,520.59L954.64,520.94L956.68,522.63L957.7,523.68L961.78,527.33L962.8,528.38L966.89,532.45L967.91,533.65L978.12,545.65L979.14,546.22L986.29,554.43L987.31,556.18L994.45,564.47L995.48,565.31L997.52,568.47L998.54,570.09L1003.64,576.9L1004.66,577.46L1008.75,583.78L1009.77,584.41L1012.83,588.83L1013.85,591.71L1018.96,603.15L1019.98,605.54L1021,610.6" style="vector-effect: none; fill: none; stroke: rgb(0, 0, 0); stroke-opacity: 1; stroke-dasharray: 3px, 3px; stroke-width: 2px; opacity: 1;"/></g><g class="points"/><g class="text"/></g><g class="trace scatter traceb9e8da" style="stroke-miterlimit: 2; opacity: 1;"><g class="fills"/><g class="errorbars"/><g class="lines"><path class="js-line" d="M0,3.23L10.21,7.37L11.23,8.14L17.36,11.65L18.38,12.08L23.48,15.52L24.5,16.01L28.59,18.82L29.61,19.8L32.67,21.41L33.69,22.4L37.78,24.78L38.8,25.06L43.9,27.87L44.92,28.64L49.01,30.4L50.03,31.03L56.16,34.33L57.18,34.89L62.28,38.68L63.3,39.32L68.41,43.39L69.43,43.74L73.51,45.85L74.53,46.41L82.7,50.83L83.72,51.6L88.83,54.06L89.85,54.76L97,58.83L98.02,59.04L114.35,67.68L115.37,68.31L119.46,71.68L120.48,72.38L124.56,74.49L125.58,74.98L128.65,76.67L129.67,77.23L156.21,91.2L157.23,91.62L165.4,96.04L166.42,96.89L170.51,98.15L171.53,98.5L191.95,107.98L192.97,108.26L198.07,110.37L199.1,110.65L206.24,114.23L207.26,114.51L213.39,117.88L214.41,118.37L221.56,121.18L222.58,121.81L232.79,127.43L233.81,127.85L240.96,130.94L241.98,131.5L255.25,137.26L256.27,137.47L268.52,143.22L269.54,144L272.61,145.26L273.63,145.96L277.71,148.35L278.73,148.84L280.78,149.68L281.8,150.53L285.88,152.07L286.9,152.91L290.99,155.09L292.01,155.65L317.53,166.32L318.55,166.95L322.64,168.36L323.66,169.06L331.83,173.2L332.85,173.48L336.93,175.52L337.95,175.59L341.01,177.63L342.04,177.77L348.16,180.64L349.18,181.07L356.33,184.3L357.35,184.79L366.54,189.35L367.56,189.84L377.77,194.69L378.79,195.04L389,199.88L390.02,200.09L393.09,201.85L394.11,202.13L398.19,203.81L399.21,204.16L404.32,205.92L405.34,206.48L410.44,209.08L411.46,209.22L414.53,210.62L415.55,211.18L425.76,216.8L426.78,217.15L429.84,218.21L430.86,218.84L440.05,222.63L441.07,222.91L461.49,231.9L462.51,232.39L464.56,233.86L465.58,234.42L468.64,236.39L469.66,236.53L473.74,239.69L474.77,240.39L481.91,243.55L482.93,244.04L486,245.45L487.02,246.08L495.19,250.29L496.21,250.5L510.5,258.64L511.52,258.93L516.63,261.31L517.65,261.94L520.71,263.49L521.73,264.19L554.4,281.88L555.42,282.16L580.95,294.73L581.97,295.5L586.05,296.98L587.08,297.82L591.16,299.37L592.18,299.79L597.29,302.17L598.31,302.74L621.79,316.07L622.81,317.06L630.98,321.9L632,322.25L641.19,328.01L642.21,328.57L650.38,333.98L651.4,334.47L656.5,336.93L657.52,337.56L660.59,339.38L661.61,339.95L663.65,340.86L664.67,341.14L667.73,343.32L668.76,344.3L671.82,345.98L672.84,346.69L687.13,355.88L688.15,356.23L691.22,358.55L692.24,359.04L699.39,363.46L700.41,364.45L703.47,366.69L704.49,367.4L724.91,378.91L725.93,379.54L749.41,390.64L750.44,390.85L752.48,391.55L753.5,392.04L760.65,395.69L761.67,396.18L769.83,400.75L770.86,401.52L788.21,413.03L789.23,413.73L799.44,420.47L800.46,421.6L805.57,424.19L806.59,425.11L808.63,426.79L809.65,427.85L818.84,434.94L819.86,435.92L822.93,437.6L823.95,438.03L831.09,442.17L832.12,442.87L835.18,444.27L836.2,444.84L852.54,454.38L853.56,455.37L857.64,457.05L858.66,458.1L861.72,459.86L862.75,460.91L865.81,463.02L866.83,463.79L870.91,466.6L871.93,467.23L876.02,469.27L877.04,470.04L879.08,471.58L880.1,471.94L907.67,492.09L908.69,492.72L913.8,497.91L914.82,498.19L925.03,507.18L926.05,507.95L929.11,509.92L930.13,511.25L934.22,514.76L935.24,515.75L937.28,517.08L938.3,517.92L940.34,519.47L941.36,520.52L954.64,531.12L955.66,531.54L969.95,544.81L970.97,545.93L980.16,554.15L981.18,554.99L988.33,563.28L989.35,564.47L992.41,568.05L993.43,568.61L996.5,571.56L997.52,573.39L1002.62,580.06L1003.64,580.83L1004.66,581.46L1005.69,583.07L1012.83,592.13L1013.85,594.73L1017.94,602.66L1018.96,605.12L1021,611.02" style="vector-effect: none; fill: none; stroke: rgb(0, 0, 0); stroke-opacity: 1; stroke-dasharray: 9px, 9px; stroke-width: 2px; opacity: 1;"/></g><g class="points"/><g class="text"/></g><g class="trace scatter trace2dab5e" style="stroke-miterlimit: 2; opacity: 1;"><g class="fills"/><g class="errorbars"/><g class="lines"><path class="js-line" d="M0,5.83L2.04,6.74L3.06,7.79L17.36,22.96L18.38,23.45L23.48,29.42L24.5,30.26L28.59,33.28L29.61,34.47L46.97,47.81L47.99,48.37L53.09,52.66L54.11,53.64L66.37,62.48L67.39,63.33L69.43,64.66L70.45,65.22L78.62,70.49L79.64,70.84L88.83,76.03L89.85,77.3L95.97,81.51L97,81.86L99.04,82.7L100.06,83.62L131.71,102.43L132.73,102.85L144.98,109.52L146,110.37L165.4,119.91L166.42,120.55L175.61,124.9L176.63,125.25L180.72,127.01L181.74,127.5L191.95,132.41L192.97,132.62L200.12,135.78L201.14,136.41L204.2,138.31L205.22,138.73L209.31,141.4L210.33,141.96L222.58,147.58L223.6,148.35L238.91,156L239.94,156.42L243,157.9L244.02,158.39L249.12,160.71L250.15,161.34L252.19,162.25L253.21,162.74L268.52,169.76L269.54,170.53L278.73,176.15L279.75,176.36L284.86,179.52L285.88,179.66L289.96,182.47L290.99,182.75L295.07,184.44L296.09,184.65L317.53,194.12L318.55,194.69L321.62,195.88L322.64,196.3L326.72,198.76L327.74,199.32L338.97,204.44L339.99,205.15L346.12,207.46L347.14,208.03L352.25,210.69L353.27,210.97L356.33,212.1L357.35,212.73L359.39,213.85L360.41,214.69L365.52,216.73L366.54,216.94L373.69,221.15L374.71,221.36L379.81,223.54L380.83,223.75L384.92,225.23L385.94,225.86L389,227.4L390.02,227.68L396.15,230.42L397.17,230.56L418.61,240.67L419.63,241.44L424.74,244.11L425.76,244.32L430.86,246.08L431.88,246.64L453.32,256.4L454.35,256.54L461.49,259.7L462.51,260.26L465.58,262.01L466.6,262.51L473.74,267.14L474.77,267.77L479.87,269.81L480.89,270.3L493.14,277.32L494.16,277.6L504.37,282.87L505.4,283.64L511.52,287.22L512.54,287.57L519.69,290.94L520.71,291.85L525.82,295.22L526.84,295.5L529.9,296.98L530.92,297.4L545.21,304.7L546.24,305.61L551.34,307.65L552.36,308.07L589.12,325.41L590.14,325.62L602.39,331.38L603.41,331.87L616.68,338.33L617.7,338.61L623.83,343.03L624.85,343.81L628.94,345.98L629.96,346.69L639.15,352.09L640.17,352.37L657.52,361.78L658.55,362.13L663.65,365.08L664.67,365.43L666.71,366.62L667.73,367.4L669.78,368.8L670.8,369.36L687.13,378.98L688.15,379.26L694.28,382.56L695.3,383.05L699.39,385.16L700.41,386L703.47,387.69L704.49,388.25L714.7,393.16L715.72,393.72L723.89,398.43L724.91,399.55L748.39,410.57L749.41,410.86L754.52,412.82L755.54,413.38L762.69,416.4L763.71,416.61L768.81,419.7L769.83,420.47L788.21,432.2L789.23,433.04L799.44,438.38L800.46,439.36L806.59,442.24L807.61,443.43L809.65,444.77L810.67,445.33L814.76,448.63L815.78,449.05L823.95,454.31L824.97,454.66L828.03,456.14L829.05,456.77L845.39,465.34L846.41,465.9L851.51,467.51L852.54,468.43L867.85,477.76L868.87,478.68L872.96,480.92L873.98,481.69L877.04,483.45L878.06,484.29L881.12,485.49L882.14,485.91L887.25,488.93L888.27,489.77L891.33,491.8L892.35,492.23L895.42,494.33L896.44,495.39L901.54,498.76L902.56,499.74L912.77,506.76L913.8,507.81L915.84,508.94L916.86,509.43L920.94,513.15L921.96,513.85L932.17,520.94L933.19,522.13L940.34,526.91L941.36,527.75L943.4,529.23L944.43,530.28L947.49,532.52L948.51,533.23L951.57,535.61L952.59,536.81L961.78,543.34L962.8,544.32L964.85,545.86L965.87,546.92L968.93,549.66L969.95,550.71L978.12,558.08L979.14,558.5L983.22,562.43L984.24,563.21L998.54,578.16L999.56,579.42L1003.64,584.06L1004.66,584.48L1016.92,601.54L1017.94,604.07L1021,611.37" style="vector-effect: none; fill: none; stroke: rgb(0, 0, 0); stroke-opacity: 1; stroke-width: 2px; opacity: 1;"/></g><g class="points"/><g class="text"/></g><g class="trace scatter trace45758c" style="stroke-miterlimit: 2; opacity: 1;"><g class="fills"/><g class="errorbars"/><g class="lines"><path class="js-line" d="M0,161.76L2.04,162.39L3.06,162.81L6.13,163.3L7.15,163.37L16.34,165.76L17.36,166.25L97,177.13L98.02,177.63L126.6,181.98L127.63,182.47L155.19,185.56L156.21,185.56L168.47,186.54L169.49,186.61L180.72,188.44L181.74,188.72L187.86,189.77L188.89,189.84L197.05,190.82L198.07,190.89L218.49,192.86L219.52,193.21L225.64,193.91L226.66,194.05L230.75,194.69L231.77,194.97L268.52,200.3L269.54,200.79L283.84,203.39L284.86,203.67L309.36,208.24L310.38,208.24L322.64,211.11L323.66,211.4L338.97,213.78L339.99,214.13L348.16,215.26L349.18,215.26L354.29,215.68L355.31,216.17L374.71,219.54L375.73,219.61L383.9,220.87L384.92,221.29L392.06,222.49L393.09,222.7L403.3,223.68L404.32,224.24L411.46,225.58L412.48,225.58L415.55,226.07L416.57,226.35L422.69,227.05L423.72,227.4L430.86,228.6L431.88,228.74L450.26,231.97L451.28,232.39L457.41,233.44L458.43,233.51L466.6,234.63L467.62,234.63L472.72,235.69L473.74,235.9L478.85,236.88L479.87,237.09L496.21,240.32L497.23,240.39L511.52,242.85L512.54,243.27L524.79,246.15L525.82,246.29L529.9,247.34L530.92,247.9L538.07,249.45L539.09,249.8L544.19,250.99L545.21,250.99L553.38,253.59L554.4,253.87L565.63,256.68L566.66,257.1L571.76,258.22L572.78,258.72L584.01,261.31L585.03,261.73L591.16,263.14L592.18,263.42L596.26,264.33L597.29,264.61L609.54,267.84L610.56,268.19L619.75,270.79L620.77,271.14L623.83,271.7L624.85,271.84L634.04,273.67L635.06,274.09L645.27,276.76L646.29,277.18L663.65,282.45L664.67,283.01L666.71,283.43L667.73,284.2L670.8,285.32L671.82,285.6L687.13,291.15L688.15,291.57L694.28,293.33L695.3,293.61L707.55,298.73L708.57,298.87L717.76,301.12L718.78,301.82L721.85,303.23L722.87,303.44L731.04,306.25L732.06,307.16L746.35,312.63L747.37,313.13L756.56,316.29L757.58,316.36L762.69,317.69L763.71,318.46L767.79,319.37L768.81,320.08L773.92,322.18L774.94,322.74L778,323.8L779.02,324.01L781.07,325.2L782.09,325.62L789.23,328.64L790.25,329.27L792.3,330.4L793.32,330.47L799.44,333.63L800.46,333.91L803.53,335.52L804.55,335.66L813.74,339.24L814.76,339.45L819.86,342.05L820.88,342.19L825.99,344.79L827.01,345.07L830.07,346.33L831.09,346.69L835.18,348.37L836.2,348.93L842.33,351.11L843.35,351.81L854.58,356.58L855.6,356.94L866.83,361.85L867.85,362.48L884.19,369.85L885.21,370.56L891.33,373.93L892.35,374.42L896.44,376.03L897.46,376.8L900.52,378.77L901.54,379.61L905.63,381.37L906.65,381.86L910.73,384.74L911.75,385.23L918.9,389.51L919.92,389.79L922.98,391.76L924.01,392.53L932.17,397.66L933.19,398.57L936.26,400.11L937.28,400.53L943.4,404.68L944.43,404.96L947.49,407.49L948.51,407.98L954.64,411.56L955.66,413.38L957.7,414.23L958.72,415.14L961.78,416.89L962.8,417.38L965.87,420.68L966.89,421.18L985.27,432.76L986.29,434.09L989.35,436.41L990.37,437.04L994.45,441.04L995.48,442.03L1000.58,446.31L1001.6,446.45L1005.69,450.45L1006.71,451.51L1010.79,454.95L1011.81,457.26L1013.85,459.16L1014.87,461.33L1021,471.73" style="vector-effect: none; fill: none; stroke: rgb(255, 165, 0); stroke-opacity: 1; stroke-dasharray: 3px, 3px; stroke-width: 2px; opacity: 1;"/></g><g class="points"/><g class="text"/></g><g class="trace scatter trace180615" style="stroke-miterlimit: 2; opacity: 1;"><g class="fills"/><g class="errorbars"/><g class="lines"><path class="js-line" d="M0,162.11L8.17,165.97L9.19,166.46L15.32,169.27L16.34,169.48L18.38,170.46L19.4,170.67L39.82,176.01L40.84,176.08L44.92,177.34L45.95,177.77L68.41,183.31L69.43,183.52L73.51,185.07L74.53,185.21L81.68,186.4L82.7,186.61L88.83,187.74L89.85,187.88L93.93,188.93L94.95,189.14L153.15,200.72L154.17,200.72L160.3,201.43L161.32,201.64L165.4,202.55L166.42,202.55L176.63,203.95L177.65,204.23L210.33,210.41L211.35,210.48L215.43,210.9L216.45,211.32L227.68,213.57L228.7,213.99L235.85,215.68L236.87,215.68L246.06,217.29L247.08,217.64L267.5,220.94L268.52,221.22L281.8,224.45L282.82,224.52L294.05,226.7L295.07,227.05L306.3,229.16L307.32,229.58L322.64,232.81L323.66,233.16L345.1,236.74L346.12,237.02L362.46,240.32L363.48,240.74L412.48,250.78L413.51,250.85L424.74,253.24L425.76,253.38L432.9,255.06L433.93,255.2L446.18,257.59L447.2,258.08L460.47,260.75L461.49,260.89L479.87,265.03L480.89,265.38L497.23,269.6L498.25,269.67L539.09,281.18L540.11,281.6L551.34,284.62L552.36,284.9L555.42,286.24L556.45,286.31L564.61,288.9L565.63,289.12L574.82,292.06L575.84,292.27L606.47,300.63L607.5,300.84L616.68,303.79L617.7,304.42L623.83,306.32L624.85,306.46L634.04,308.84L635.06,309.33L640.17,310.46L641.19,310.88L661.61,316.99L662.63,317.48L665.69,318.18L666.71,318.6L669.78,320.43L670.8,320.71L682.03,324.36L683.05,324.78L685.09,326.11L686.11,326.18L692.24,327.73L693.26,327.73L700.41,329.41L701.43,330.12L705.51,331.94L706.53,332.64L712.66,333.7L713.68,334.19L716.74,334.82L717.76,335.31L726.95,339.8L727.97,340.09L732.06,342.12L733.08,342.75L735.12,343.53L736.14,344.02L740.23,345.56L741.25,345.91L745.33,347.18L746.35,347.95L776.98,358.62L778,359.11L782.09,360.31L783.11,360.66L798.42,366.55L799.44,367.05L813.74,372.31L814.76,372.52L820.88,374.91L821.91,375.33L828.03,377.72L829.05,377.93L834.16,379.61L835.18,380.1L838.24,381.16L839.26,381.51L872.96,394.99L873.98,395.34L878.06,397.09L879.08,397.52L882.14,398.5L883.17,399.13L888.27,401.66L889.29,402.64L896.44,404.96L897.46,405.8L901.54,408.33L902.56,408.54L907.67,410.64L908.69,411.63L911.75,413.1L912.77,413.66L917.88,416.05L918.9,416.4L921.96,417.6L922.98,419L930.13,422.02L931.15,422.79L943.4,429.95L944.43,430.09L947.49,431.99L948.51,432.34L954.64,435.29L955.66,436.62L957.7,437.53L958.72,438.31L973.01,446.59L974.03,447.08L978.12,450.03L979.14,450.8L983.22,452.77L984.24,453.54L985.27,453.82L986.29,455.16L989.35,457.68L990.37,458.18L993.43,460.91L994.45,462.04L1005.69,470.81L1006.71,472.08L1009.77,474.67L1010.79,475.17L1012.83,478.04L1013.85,478.89L1017.94,485.84L1018.96,487.24L1021,490.96" style="vector-effect: none; fill: none; stroke: rgb(255, 165, 0); stroke-opacity: 1; stroke-dasharray: 9px, 9px; stroke-width: 2px; opacity: 1;"/></g><g class="points"/><g class="text"/></g><g class="trace scatter tracec89573" style="stroke-miterlimit: 2; opacity: 1;"><g class="fills"/><g class="errorbars"/><g class="lines"><path class="js-line" d="M0,163.93L7.15,170.74L8.17,171.52L17.36,178.12L18.38,178.54L33.69,185.14L34.71,185.42L42.88,188.23L43.9,188.93L46.97,190.54L47.99,190.75L60.24,194.69L61.26,195.25L74.53,199.18L75.55,199.25L95.97,205.5L97,205.71L105.16,207.32L106.18,207.81L111.29,209.08L112.31,209.5L115.37,209.85L116.39,210.27L122.52,211.75L123.54,212.31L130.69,214.34L131.71,214.69L156.21,219.26L157.23,219.33L162.34,220.73L163.36,221.01L171.53,221.65L172.55,221.86L187.86,225.65L188.89,225.72L195.01,227.12L196.03,227.19L214.41,230.56L215.43,230.63L219.52,231.76L220.54,231.9L227.68,233.58L228.7,234.21L235.85,236.11L236.87,236.18L244.02,237.65L245.04,237.93L254.23,239.83L255.25,240.18L285.88,247.13L286.9,247.48L289.96,248.04L290.99,248.61L297.11,250.01L298.13,250.36L305.28,251.91L306.3,252.26L314.47,254.57L315.49,254.64L322.64,256.61L323.66,257.03L329.78,258.5L330.8,258.79L344.08,261.8L345.1,261.87L349.18,262.86L350.2,262.86L355.31,264.4L356.33,264.89L372.67,269.88L373.69,269.88L385.94,272.55L386.96,272.62L406.36,277.46L407.38,277.53L411.46,278.65L412.48,278.65L416.57,279.78L417.59,279.85L422.69,281.18L423.72,281.6L434.95,284.55L435.97,284.83L456.39,289.82L457.41,289.82L464.56,291.29L465.58,291.85L472.72,293.05L473.74,293.19L479.87,295.15L480.89,295.43L487.02,297.4L488.04,297.68L501.31,301.75L502.33,301.75L513.56,304.91L514.58,305.05L525.82,308.28L526.84,308.42L533.98,310.18L535,310.39L539.09,311.86L540.11,312.42L546.24,313.97L547.26,314.25L556.45,316.22L557.47,316.57L578.91,322.74L579.93,323.03L589.12,325.41L590.14,325.69L594.22,326.96L595.24,327.45L609.54,331.1L610.56,331.38L617.7,333.35L618.73,333.77L666.71,346.9L667.73,347.74L670.8,348.93L671.82,349.07L678.97,351.88L679.99,352.02L683.05,353.07L684.07,353.99L688.15,355.04L689.18,355.18L693.26,356.37L694.28,356.51L700.41,358.2L701.43,358.83L705.51,360.17L706.53,360.94L712.66,362.27L713.68,362.41L717.76,363.61L718.78,364.1L731.04,369.01L732.06,370.13L738.18,372.87L739.2,373.01L749.41,376.38L750.44,376.59L756.56,378.42L757.58,378.56L760.65,379.82L761.67,380.17L772.9,383.47L773.92,384.18L785.15,388.88L786.17,389.16L797.4,393.02L798.42,393.58L803.53,395.55L804.55,395.62L808.63,397.16L809.65,397.52L817.82,400.68L818.84,401.03L822.93,402.57L823.95,403.34L842.33,408.89L843.35,409.17L857.64,414.86L858.66,415.42L880.1,422.65L881.12,422.86L894.4,428.27L895.42,428.48L908.69,434.52L909.71,435.22L920.94,439.71L921.96,440.34L924.01,441.89L925.03,442.31L929.11,443.15L930.13,443.92L936.26,447.29L937.28,447.57L945.45,452L946.47,452.42L957.7,457.68L958.72,458.53L961.78,459.86L962.8,460.35L965.87,462.46L966.89,462.74L969.95,463.93L970.97,464.7L978.12,468.36L979.14,468.99L985.27,472.08L986.29,473.41L991.39,476.85L992.41,477.76L997.52,482.26L998.54,482.89L1005.69,487.8L1006.71,488.93L1009.77,491.45L1010.79,492.02L1012.83,494.89L1013.85,495.67L1021,505.92" style="vector-effect: none; fill: none; stroke: rgb(255, 165, 0); stroke-opacity: 1; stroke-width: 2px; opacity: 1;"/></g><g class="points"/><g class="text"/></g></g></g></g><path class="xlines-above crisp" d="M98,712.5H1120" style="fill: none; stroke-width: 1px; stroke: rgb(0, 0, 0); stroke-opacity: 1;"/><path class="ylines-above crisp" d="M98.5,100V712" style="fill: none; stroke-width: 1px; stroke: rgb(0, 0, 0); stroke-opacity: 1;"/><g class="overlines-above"/><g class="xaxislayer-above"><path class="xtick ticks crisp" d="M0,713v5" transform="translate(99,0)" style="stroke: rgb(68, 68, 68); stroke-opacity: 1; stroke-width: 1px;"/><path class="xtick ticks crisp" d="M0,713v5" transform="translate(303.2,0)" style="stroke: rgb(68, 68, 68); stroke-opacity: 1; stroke-width: 1px;"/><path class="xtick ticks crisp" d="M0,713v5" transform="translate(507.4,0)" style="stroke: rgb(68, 68, 68); stroke-opacity: 1; stroke-width: 1px;"/><path class="xtick ticks crisp" d="M0,713v5" transform="translate(711.6,0)" style="stroke: rgb(68, 68, 68); stroke-opacity: 1; stroke-width: 1px;"/><path class="xtick ticks crisp" d="M0,713v5" transform="translate(915.8,0)" style="stroke: rgb(68, 68, 68); stroke-opacity: 1; stroke-width: 1px;"/><path class="xtick ticks crisp" d="M0,713v5" transform="translate(1120,0)" style="stroke: rgb(68, 68, 68); stroke-opacity: 1; stroke-width: 1px;"/><g class="xtick"><text text-anchor="middle" x="0" y="746.8" transform="translate(99,0)" style="font-family: Arial; font-size: 24px; fill: rgb(42, 63, 95); fill-opacity: 1; white-space: pre; opacity: 1;">0</text></g><g class="xtick"><text text-anchor="middle" x="0" y="746.8" style="font-family: Arial; font-size: 24px; fill: rgb(42, 63, 95); fill-opacity: 1; white-space: pre; opacity: 1;" transform="translate(303.2,0)">0.2</text></g><g class="xtick"><text text-anchor="middle" x="0" y="746.8" style="font-family: Arial; font-size: 24px; fill: rgb(42, 63, 95); fill-opacity: 1; white-space: pre; opacity: 1;" transform="translate(507.4,0)">0.4</text></g><g class="xtick"><text text-anchor="middle" x="0" y="746.8" style="font-family: Arial; font-size: 24px; fill: rgb(42, 63, 95); fill-opacity: 1; white-space: pre; opacity: 1;" transform="translate(711.6,0)">0.6</text></g><g class="xtick"><text text-anchor="middle" x="0" y="746.8" style="font-family: Arial; font-size: 24px; fill: rgb(42, 63, 95); fill-opacity: 1; white-space: pre; opacity: 1;" transform="translate(915.8,0)">0.8</text></g><g class="xtick"><text text-anchor="middle" x="0" y="746.8" style="font-family: Arial; font-size: 24px; fill: rgb(42, 63, 95); fill-opacity: 1; white-space: pre; opacity: 1;" transform="translate(1120,0)">1</text></g></g><g class="yaxislayer-above"><path class="ytick ticks crisp" d="M98,0h-5" transform="translate(0,712)" style="stroke: rgb(68, 68, 68); stroke-opacity: 1; stroke-width: 1px;"/><path class="ytick ticks crisp" d="M98,0h-5" transform="translate(0,589.6)" style="stroke: rgb(68, 68, 68); stroke-opacity: 1; stroke-width: 1px;"/><path class="ytick ticks crisp" d="M98,0h-5" transform="translate(0,467.2)" style="stroke: rgb(68, 68, 68); stroke-opacity: 1; stroke-width: 1px;"/><path class="ytick ticks crisp" d="M98,0h-5" transform="translate(0,344.8)" style="stroke: rgb(68, 68, 68); stroke-opacity: 1; stroke-width: 1px;"/><path class="ytick ticks crisp" d="M98,0h-5" transform="translate(0,222.4)" style="stroke: rgb(68, 68, 68); stroke-opacity: 1; stroke-width: 1px;"/><path class="ytick ticks crisp" d="M98,0h-5" transform="translate(0,100)" style="stroke: rgb(68, 68, 68); stroke-opacity: 1; stroke-width: 1px;"/><g class="ytick"><text text-anchor="end" x="88.2" y="8.399999999999999" transform="translate(0,712)" style="font-family: Arial; font-size: 24px; fill: rgb(42, 63, 95); fill-opacity: 1; white-space: pre; opacity: 1;">0</text></g><g class="ytick"><text text-anchor="end" x="88.2" y="8.399999999999999" style="font-family: Arial; font-size: 24px; fill: rgb(42, 63, 95); fill-opacity: 1; white-space: pre; opacity: 1;" transform="translate(0,589.6)">20</text></g><g class="ytick"><text text-anchor="end" x="88.2" y="8.399999999999999" style="font-family: Arial; font-size: 24px; fill: rgb(42, 63, 95); fill-opacity: 1; white-space: pre; opacity: 1;" transform="translate(0,467.2)">40</text></g><g class="ytick"><text text-anchor="end" x="88.2" y="8.399999999999999" style="font-family: Arial; font-size: 24px; fill: rgb(42, 63, 95); fill-opacity: 1; white-space: pre; opacity: 1;" transform="translate(0,344.8)">60</text></g><g class="ytick"><text text-anchor="end" x="88.2" y="8.399999999999999" style="font-family: Arial; font-size: 24px; fill: rgb(42, 63, 95); fill-opacity: 1; white-space: pre; opacity: 1;" transform="translate(0,222.4)">80</text></g><g class="ytick"><text text-anchor="end" x="88.2" y="8.399999999999999" style="font-family: Arial; font-size: 24px; fill: rgb(42, 63, 95); fill-opacity: 1; white-space: pre; opacity: 1;" transform="translate(0,100)">100</text></g></g><g class="overaxes-above"/></g></g><g class="polarlayer"/><g class="smithlayer"/><g class="ternarylayer"/><g class="geolayer"/><g class="funnelarealayer"/><g class="pielayer"/><g class="iciclelayer"/><g class="treemaplayer"/><g class="sunburstlayer"/><g class="glimages"/><defs id="topdefs-9bcdba"><g class="clips"/><clipPath id="legend9bcdba"><rect width="219" height="189" x="2" y="2"/></clipPath></defs><g class="layer-above"><g class="imagelayer"/><g class="shapelayer"/></g><g class="infolayer"><g class="legend" pointer-events="all" transform="translate(897,100)"><rect class="bg" shape-rendering="crispEdges" style="stroke: rgb(0, 0, 0); stroke-opacity: 1; fill: rgb(255, 255, 255); fill-opacity: 1; stroke-width: 2px;" width="221" height="191" x="1" y="1"/><g class="scrollbox" transform="" clip-path="url(#legend9bcdba)"><g class="groups" transform=""><g class="traces" transform="translate(2,20.200000000000003)" style="opacity: 1;"><text class="legendtext" text-anchor="start" x="40" y="7.0200000000000005" style="font-family: Arial; font-size: 18px; fill: rgb(42, 63, 95); fill-opacity: 1; white-space: pre;">CN Ignored - BP</text><g class="layers" style="opacity: 1;"><g class="legendfill"/><g class="legendlines"><path class="js-line" d="M5,0h30" style="fill: none; stroke: rgb(0, 0, 0); stroke-opacity: 1; stroke-dasharray: 3px, 3px; stroke-width: 2px;"/></g><g class="legendsymbols"><g class="legendpoints"/></g></g><rect class="legendtoggle" x="0" y="-13.200000000000001" width="213.03125" height="26.400000000000002" style="fill: rgb(0, 0, 0); fill-opacity: 0;"/></g><g class="traces" transform="translate(2,46.6)" style="opacity: 1;"><text class="legendtext" text-anchor="start" x="40" y="7.0200000000000005" style="font-family: Arial; font-size: 18px; fill: rgb(42, 63, 95); fill-opacity: 1; white-space: pre;">CN Ignored - CDS</text><g class="layers" style="opacity: 1;"><g class="legendfill"/><g class="legendlines"><path class="js-line" d="M5,0h30" style="fill: none; stroke: rgb(255, 165, 0); stroke-opacity: 1; stroke-dasharray: 3px, 3px; stroke-width: 2px;"/></g><g class="legendsymbols"><g class="legendpoints"/></g></g><rect class="legendtoggle" x="0" y="-13.200000000000001" width="213.03125" height="26.400000000000002" style="fill: rgb(0, 0, 0); fill-opacity: 0;"/></g></g><g class="groups" transform="translate(0,10)"><g class="traces" transform="translate(2,73)" style="opacity: 1;"><text class="legendtext" text-anchor="start" x="40" y="7.0200000000000005" style="font-family: Arial; font-size: 18px; fill: rgb(42, 63, 95); fill-opacity: 1; white-space: pre;">No CN Conflict - BP</text><g class="layers" style="opacity: 1;"><g class="legendfill"/><g class="legendlines"><path class="js-line" d="M5,0h30" style="fill: none; stroke: rgb(0, 0, 0); stroke-opacity: 1; stroke-dasharray: 9px, 9px; stroke-width: 2px;"/></g><g class="legendsymbols"><g class="legendpoints"/></g></g><rect class="legendtoggle" x="0" y="-13.200000000000001" width="213.03125" height="26.400000000000002" style="fill: rgb(0, 0, 0); fill-opacity: 0;"/></g><g class="traces" transform="translate(2,99.4)" style="opacity: 1;"><text class="legendtext" text-anchor="start" x="40" y="7.0200000000000005" style="font-family: Arial; font-size: 18px; fill: rgb(42, 63, 95); fill-opacity: 1; white-space: pre;">No CN Conflict - CDS</text><g class="layers" style="opacity: 1;"><g class="legendfill"/><g class="legendlines"><path class="js-line" d="M5,0h30" style="fill: none; stroke: rgb(255, 165, 0); stroke-opacity: 1; stroke-dasharray: 9px, 9px; stroke-width: 2px;"/></g><g class="legendsymbols"><g class="legendpoints"/></g></g><rect class="legendtoggle" x="0" y="-13.200000000000001" width="213.03125" height="26.400000000000002" style="fill: rgb(0, 0, 0); fill-opacity: 0;"/></g></g><g class="groups" transform="translate(0,20)"><g class="traces" transform="translate(2,125.80000000000001)" style="opacity: 1;"><text class="legendtext" text-anchor="start" x="40" y="7.0200000000000005" style="font-family: Arial; font-size: 18px; fill: rgb(42, 63, 95); fill-opacity: 1; white-space: pre;">CN Agreement - BP</text><g class="layers" style="opacity: 1;"><g class="legendfill"/><g class="legendlines"><path class="js-line" d="M5,0h30" style="fill: none; stroke: rgb(0, 0, 0); stroke-opacity: 1; stroke-width: 2px;"/></g><g class="legendsymbols"><g class="legendpoints"/></g></g><rect class="legendtoggle" x="0" y="-13.200000000000001" width="213.03125" height="26.400000000000002" style="fill: rgb(0, 0, 0); fill-opacity: 0;"/></g><g class="traces" transform="translate(2,152.2)" style="opacity: 1;"><text class="legendtext" text-anchor="start" x="40" y="7.0200000000000005" style="font-family: Arial; font-size: 18px; fill: rgb(42, 63, 95); fill-opacity: 1; white-space: pre;">CN Agreement - CDS</text><g class="layers" style="opacity: 1;"><g class="legendfill"/><g class="legendlines"><path class="js-line" d="M5,0h30" style="fill: none; stroke: rgb(255, 165, 0); stroke-opacity: 1; stroke-width: 2px;"/></g><g class="legendsymbols"><g class="legendpoints"/></g></g><rect class="legendtoggle" x="0" y="-13.200000000000001" width="213.03125" height="26.400000000000002" style="fill: rgb(0, 0, 0); fill-opacity: 0;"/></g></g></g><rect class="scrollbar" rx="20" ry="3" width="0" height="0" style="fill: rgb(128, 139, 164); fill-opacity: 1;" x="0" y="0"/></g><g class="g-gtitle"><text class="gtitle" x="600" y="50" text-anchor="middle" dy="0em" style="opacity: 1; font-family: Arial; font-size: 36px; fill: rgb(42, 63, 95); fill-opacity: 1; white-space: pre;"><tspan class="line" dy="0em" x="600" y="50">Matching NCH CNVs to ClinVar CNVs</tspan><tspan class="line" dy="1.3em" x="600" y="50">at Varying Similarity Threshold</tspan></text></g><g class="g-xtitle"><text class="xtitle" x="609.5" y="787.2998046875" text-anchor="middle" style="opacity: 1; font-family: Arial; font-size: 30px; fill: rgb(42, 63, 95); fill-opacity: 1; white-space: pre;">Similarity Threshold</text></g><g class="g-ytitle" transform="translate(3.8466796875,0)"><text class="ytitle" transform="rotate(-90,23.1533203125,406)" x="23.1533203125" y="406" text-anchor="middle" style="opacity: 1; font-family: Arial; font-size: 30px; fill: rgb(42, 63, 95); fill-opacity: 1; white-space: pre;">% NCH Variants with ≥1 ClinVar Match</text></g></g></svg>